<svg width="1172" height="785" viewBox="0 0 1172 785" fill="none" xmlns="http://www.w3.org/2000/svg">
<path d="M792 341C816.853 341 837 313.689 837 280C837 246.311 816.853 219 792 219C767.147 219 747 246.311 747 280C747 313.689 767.147 341 792 341Z" fill="#767D9F"/>
<path d="M790.132 203.3C794.54 229.635 798.281 256.167 801.355 282.895C802.28 290.837 803.103 299.213 801 306.722C799.24 312.982 795.655 317.872 792.842 323.351C790.03 328.831 787.902 335.854 789.612 342.132C791.322 348.409 796.313 351.843 801.076 353.611C814.707 358.64 829.237 354.981 842.804 349.536C848.946 347.372 854.836 344.032 860.298 339.617C866.049 334.623 870.761 327.687 875.093 320.542C894.868 287.716 907.814 248.317 920 209.161C912.17 210.137 904.282 208.548 896.989 204.526C889.696 200.503 883.207 194.163 878.058 186.029C873.067 178 869.406 166.815 872.218 157C863.971 163.191 854.179 163.607 845.299 167.838C839.792 170.717 834.491 174.287 829.465 178.503C823.401 183.3 817.371 188.191 811.375 193.173C804.522 198.826 798.1 203.855 790.132 203.3Z" fill="#FCD1D8"/>
<path d="M881.709 247.96C873.956 268.634 863.868 288.508 849.466 300.818C835.063 313.128 815.674 316.467 801.246 304.295C794.14 298.349 788.759 289.307 782.554 281.692C776.349 274.076 768.596 267.556 760.259 268.547C751.072 269.642 743.877 279.466 737.722 288.873C728.383 303.165 719.361 318.066 712.75 334.984C700.06 367.499 697.053 405.508 697.611 442.369C698.17 479.231 702.065 515.901 702.154 552.762C702.281 598.109 696.672 643.09 691 687.759C743.154 678.961 795.371 698.191 847.638 705.477C881.088 710.189 914.791 710.084 948.418 709.963C954.331 709.963 960.625 709.754 965.549 705.268C968.558 702.26 970.992 698.299 972.642 693.723C977.286 681.986 979.152 668.598 980.446 655.366C983.732 621.947 983.834 588.111 983.923 554.379C984.151 472.658 984.367 390.642 976.791 309.564C974.926 289.62 972.54 269.573 966.957 250.916C961.374 232.259 952.263 215.098 939.523 205.1C931.338 198.666 912.367 187.469 902.723 193.954C891.899 201.188 886.899 234.119 881.709 247.96Z" fill="#8B88C2"/>
<path d="M886.067 478.826C884.1 428.268 876.094 374.31 893.134 329.436C897.322 318.418 882.299 304.662 886.943 293.993C892.61 280.984 896.907 266.939 899.707 252.274C900.671 247.235 901.445 241.901 900.532 236.845C898.844 227.622 892.208 222.131 886.575 216.517C880.357 210.311 877.16 191.395 875.155 181.161C873.15 170.928 891.104 183.253 898.324 179.61C908.348 174.571 921.087 177.744 931.085 182.852C936.668 185.677 942.733 185.921 948.684 186.13C960.243 186.548 971.84 186.949 983.31 184.997C988.462 184.108 993.626 182.765 998.803 183.166C1012.01 184.195 1023.49 196.608 1031.31 211.287C1039.13 225.966 1044.1 243.069 1050.51 258.968C1055.85 272.218 1062.22 284.735 1066.77 298.526C1070.81 310.729 1073.36 323.839 1075.88 336.88L1082.39 370.335C1083.53 375.121 1084.07 380.138 1083.99 385.172C1083.66 390.524 1081.94 395.51 1080.19 400.269C1073.56 417.91 1065.63 434.556 1056.5 449.938C1042.81 473.003 1026.18 493.802 1018.05 521.417C1014.88 532.173 1013.12 543.61 1011.5 555.012C1005.01 600.613 1000.39 646.683 997.674 693C982.848 683.573 967.307 676.434 951.336 671.713C943.375 669.373 935.327 667.627 927.228 666.483C920.135 665.472 910.987 667.39 904.237 664.74C892.944 660.329 891.701 634.091 889.988 620.353C887.247 598.474 886.701 576.211 886.6 554.105C886.473 528.965 887.044 503.878 886.067 478.826Z" fill="#4C4981"/>
<path d="M638.401 383.559C643.687 425.44 649.512 467.444 661 506.796C660.711 507.18 660.422 507.529 660.134 507.878C659.117 509.082 658.062 510.216 656.957 511.368C654.384 513.881 651.559 516.01 649.425 519.291C648.616 520.546 647.978 521.995 647.541 523.566C647.147 524.793 646.943 526.122 646.943 527.466C646.943 528.811 647.147 530.139 647.541 531.367C641.553 535.049 634.597 533.915 627.88 533.565C622.093 533.269 616.481 533.566 611.835 537.981C605.382 544.158 603.436 556.025 602.394 566.809C602.009 570.741 601.679 574.68 601.402 578.623C601.135 582.288 600.917 585.964 600.75 589.652C600.18 601.852 600.101 614.087 600.511 626.299C600.578 628.533 600.666 630.766 600.775 633C580.26 632.319 561.566 617.451 543.876 603.002C539.834 599.704 535.665 596.231 533.042 590.787C530.624 585.439 529.6 579.1 530.141 572.83C530.141 571.94 530.254 571.085 530.342 570.177C530.904 564.999 531.868 559.92 533.217 555.03C538.752 534.201 546.91 514.908 557.31 498.053C561.805 490.759 566.864 483.621 568.961 474.46C569.877 470.463 570.216 466.223 571.145 462.244C575.313 445.003 590.354 436.853 595.502 420.118C596.757 416.122 597.335 411.742 598.891 407.902C600.293 404.712 602.101 401.903 604.227 399.613C605.144 398.549 606.098 397.519 607.039 396.49C615.861 386.88 624.361 376.73 632.538 366.038C634.062 364.049 635.568 362.036 637.058 360C636.859 367.898 637.31 375.802 638.401 383.559Z" fill="#4C4981"/>
<path d="M765.74 261.873C763.919 264.515 761.946 267 760.011 269.468L759.492 270.111L757.444 272.719C753.725 277.129 750.506 282.279 747.895 287.996L747.679 288.483C741.229 304.351 743.62 323.887 745.416 341.911C747.643 364.371 748.645 387.029 748.413 409.695C748.084 440.981 745.403 472.057 745.352 503.307C745.352 510.399 745.466 517.473 745.694 524.564C746.061 536.087 746.693 547.593 747.452 559.099C748.274 571.718 749.26 584.319 750.184 596.92C750.917 606.67 751.613 616.403 752.195 626.137C752.486 631.177 752.764 636.2 752.992 641.24C753.257 647.15 753.472 653.076 753.599 658.986C753.687 662.74 753.738 666.477 753.738 670.231C753.738 672.369 753.738 674.489 753.738 676.61C753.738 680.677 753.658 684.732 753.497 688.776C753.329 693.979 753.072 699.193 752.726 704.419C752.334 710.102 751.638 716.307 748.729 720.305C748.552 720.548 748.362 720.774 748.173 721L744.075 720.305C715.826 715.657 687.308 714.958 658.956 718.219C659.576 712.344 660.145 706.487 660.702 700.595C660.955 697.814 661.208 695.016 661.448 692.218C661.726 689.02 661.992 685.822 662.245 682.624C662.536 679.147 662.801 675.671 663.054 672.195C663.712 663.238 664.289 654.276 664.787 645.307C665.52 632.225 666.077 619.12 666.456 605.992C666.642 599.724 666.785 593.449 666.886 587.169C667.03 579.383 667.097 571.59 667.089 563.792C667.089 556.214 667.042 548.625 666.95 541.023C666.95 538.521 666.874 536.018 666.722 533.532C666.613 531.295 666.389 529.07 666.052 526.876C665.112 521.816 663.843 516.883 662.257 512.137C661.979 511.233 661.713 510.399 661.448 509.443C661.296 508.974 661.157 508.487 661.018 508.018C668.303 499.101 673.488 487.161 678.472 475.412C686.553 456.484 694.825 436.722 696.178 414.857C697.532 392.993 689.627 368.434 674.424 361.76C670.289 360.022 665.913 359.535 661.65 358.509C657.628 357.536 649.243 355.329 644.589 351.366C642.059 354.935 639.53 358.44 637 361.881C637.153 356.631 638.087 351.479 639.745 346.743L641.54 346.864C641.394 346.308 641.326 345.718 641.338 345.126C641.338 343.267 642.274 341.164 644.272 338.835C650.229 331.882 659.601 330.335 663.358 320.932C664.926 317.022 665.192 312.364 666.456 308.262C670.086 296.565 680.508 292.254 686.781 282.904C693.054 273.553 694.623 260.309 699.694 249.88C703.483 242.265 708.738 236.247 714.872 232.5C715.377 232.17 715.896 231.839 716.415 231.544C726.912 225.374 739.383 223.966 750.26 224.001C754.484 224.001 765.437 224.174 770.799 227.112C771.669 227.539 772.466 228.207 773.139 229.076C778.856 237.627 769.965 255.686 765.74 261.873Z" fill="#4C4981"/>
<path d="M640.68 345.469C650.452 341.448 660.711 340.121 670.86 341.567C681.01 343.013 690.849 347.202 699.804 353.891C708.911 360.808 717.083 370.457 722.092 382.908C729.618 401.584 729.29 424.099 728.758 445.421C728.493 456.09 728.151 467.14 724.71 476.721C720.726 487.805 713.212 495.414 705.547 501.639C700.744 505.828 695.483 508.939 689.962 510.856C681.462 513.381 672.633 511.237 664.069 509.127C654.759 506.775 644.766 503.939 638.302 494.463C634.507 488.964 632.433 481.822 630.384 474.836C627.441 464.748 624.489 454.672 621.529 444.608C616.406 427.125 614.673 412.582 621.441 395.549C624.514 387.784 628.271 380.521 631.307 372.705C632.825 368.728 638.264 346.489 640.68 345.469Z" fill="#4C4981"/>
<path d="M1172 645.816V697.974C1146.04 712.839 1118.19 720.429 1090.07 720.302H748.725C748.548 720.547 748.358 720.773 748.168 721L744.067 720.302H136.873C85.9284 720.302 38.7178 701.358 0 669.086V589.454L292.022 543H292.25L462.31 562.851L506.318 568.085L529.176 570.754L576.488 576.283L600.828 579.127L636.267 583.279L641.254 583.854L666.796 586.837L701.451 590.762L750.18 596.449L831.413 605.956L888.559 612.637L982.398 623.609L1000.24 625.685L1002.17 625.912L1003.84 626.104L1027.41 628.86L1053.28 631.895L1056.28 632.244L1172 645.816Z" fill="#504F60"/>
<path d="M829 643.776L463.183 558L449 656.534L616.688 684.118L668.321 693L810.351 654.57L829 643.776Z" fill="#9C9CA1"/>
<path d="M639 688.232L823.437 641.154C824.36 640.914 825.31 640.955 826.22 641.273C827.13 641.59 827.977 642.178 828.7 642.993C829.423 643.807 830.004 644.829 830.401 645.985C830.799 647.141 831.004 648.402 831 649.678C831.004 651.701 830.485 653.663 829.533 655.22C828.582 656.778 827.258 657.833 825.793 658.201L645.672 704L639 688.232Z" fill="#9C9CA1"/>
<path d="M728.35 525.348C734.044 524.69 739.814 523.577 744.941 520.443C751.254 516.541 756.165 509.818 762.011 504.865C774.865 493.895 792.062 492.422 806.797 498.722C821.532 505.022 833.83 518.515 842.441 534.626C848.161 545.361 852.454 559.058 848.414 570.906C847.027 574.528 845.28 577.919 843.212 580.999L832.681 598.081C830.681 601.672 793.371 569.735 790.632 572.473C786.692 576.031 816.696 612.64 811.873 613.518C799.057 615.837 786.014 614.521 773.097 615.587C750.913 617.42 729.246 626.29 707.011 625.993C694.233 625.82 681.619 622.623 669.132 619.426L613.866 605.322C604.245 602.877 593.374 599.304 588.841 588.474C586.808 583.6 586.429 577.959 586.189 572.473C585.533 557.366 586.189 540.566 594.624 529.674C602.553 519.456 615.091 516.227 624.561 508.674C636.152 499.411 639.978 502.405 652.2 509.363C676.045 522.766 702.28 528.274 728.35 525.348Z" fill="#F2CDD3"/>
<path d="M976.264 503.91C960.696 512.179 945.04 520.483 928.736 525.409C901.404 533.678 872.803 532.372 845.686 541.825C831.361 546.838 817.124 554.916 802.406 553.28C795.826 552.548 789.475 549.798 783.072 547.709C747.107 535.523 706.222 539.475 677.013 570.81C667.023 581.516 658.846 594.868 651.43 609.107C649.843 612.183 648.77 615.702 648.289 619.413C647.807 623.124 647.929 626.935 648.645 630.574C649.361 634.213 650.653 637.59 652.43 640.464C654.206 643.337 656.423 645.636 658.922 647.196C670.281 654.369 682.449 658.826 694.901 660.374C711.546 662.394 728.268 659.156 744.825 655.918C769.394 651.131 793.975 646.326 818.481 640.947C827.279 639.015 836.077 637.013 844.926 635.481C908.605 624.427 973.437 637.866 1037.28 628.639C1043.73 627.699 1050.3 626.481 1056.17 622.703C1071.03 613.129 1078.38 587.887 1075.31 565.709C1072.25 543.531 1060.4 525.096 1046.15 513.78C1034.21 504.258 1021.33 500.411 1008.03 496.372C995.686 492.421 988.156 497.643 976.264 503.91Z" fill="#F2CDD3"/>
<path opacity="0.1" d="M1079.02 382.384C1086.08 395.046 1087.58 412.035 1086.82 427.889C1086.06 443.744 1083.3 459.424 1082.89 475.349C1082.33 497.186 1086.18 518.953 1085.53 540.721C1085.07 555.948 1082.43 570.878 1079.31 585.494C1075.63 602.744 1070.3 621.285 1058.66 629.57C1043.2 640.576 1010.79 634.384 994.539 643C996.018 630.39 1010.2 612.128 1011.67 599.517C1012.69 590.796 1013.73 581.831 1012.63 573.093C1011.23 561.948 1006.45 552.058 1000.77 543.826C991.747 530.727 979.966 520.872 967.025 517.663C954.085 514.453 922.402 517.087 912.049 528.267C910.775 516.721 934.489 505.593 942.827 503.099C946.983 501.826 951.752 502.541 955.079 498.93C961.454 492.093 956.826 478.471 957.132 467.535C957.374 458.814 961.097 450.825 961.849 442.104C963.124 428.151 956.469 413.936 959.082 400.244C960.051 395.186 962.206 390.738 963.698 385.924C968.237 371.186 966.248 354.372 963.825 338.709C962.321 328.872 960.855 317.779 964.858 309.389C968.568 301.558 979.099 329.447 985.844 328.157C1008.12 323.883 1028.27 301.296 1046.26 319.785C1055.43 329.203 1056.63 338.971 1060.29 352.418C1063.85 365.221 1073.06 371.779 1079.02 382.384Z" fill="black"/>
<path d="M1082.11 382.228C1089.09 394.898 1090.58 411.897 1089.82 427.761C1089.07 443.625 1086.34 459.315 1085.94 475.248C1085.39 497.099 1089.19 518.879 1088.55 540.66C1088.1 555.896 1085.49 570.835 1082.4 585.46C1078.76 602.72 1073.49 621.272 1061.98 629.562C1046.7 640.574 1014.67 634.379 998.596 643C1000.06 630.382 1014.07 612.109 1015.54 599.491C1016.54 590.765 1017.56 581.795 1016.48 573.051C1015.09 561.899 1010.37 552.004 1004.76 543.766C995.835 530.66 984.189 520.799 971.397 517.588C958.604 514.377 927.283 517.012 917.049 528.199C915.789 516.645 939.232 505.511 947.474 503.015C951.583 501.741 956.297 502.457 959.587 498.844C965.889 492.003 961.314 478.372 961.616 467.43C961.855 458.704 965.536 450.711 966.279 441.984C967.54 428.023 960.961 413.799 963.544 400.099C964.502 395.038 966.632 390.587 968.107 385.771C972.594 371.023 970.628 354.199 968.233 338.527C966.746 328.684 965.296 317.584 969.254 309.19C972.922 301.354 980.093 298.387 986.761 297.078C1009.08 292.897 1031.7 300.977 1049.78 319.591C1058.84 329.016 1060.03 338.789 1063.64 352.245C1067.11 365.055 1076.22 371.617 1082.11 382.228Z" fill="#4C4981"/>
<path d="M243.557 299.795L312.656 649.891C313.504 654.181 315.285 658.014 317.762 660.881C320.239 663.748 323.294 665.512 326.521 665.938L637.533 706.899C640.068 707.234 642.625 706.732 644.988 705.434C647.352 704.136 649.455 702.08 651.12 699.439C652.786 696.798 653.965 693.648 654.559 690.253C655.154 686.859 655.147 683.318 654.538 679.928L578.869 257.631C577.969 252.611 575.799 248.192 572.746 245.158C569.693 242.125 565.955 240.673 562.195 241.062L257.702 272.284C255.365 272.533 253.096 273.486 251.057 275.075C249.019 276.665 247.262 278.851 245.911 281.479C244.56 284.106 243.648 287.11 243.242 290.276C242.835 293.442 242.943 296.692 243.557 299.795Z" fill="#9C9CA1"/>
<path d="M858.5 368C877.002 368 892 346.957 892 321C892 295.043 877.002 274 858.5 274C839.998 274 825 295.043 825 321C825 346.957 839.998 368 858.5 368Z" fill="#3A3A3A"/>
<path d="M886.719 233.75C886.719 233.75 893.901 263.121 872.711 275.472L870 281.987L883.274 300C883.274 300 899.639 258.94 897.866 244.359C897.866 244.359 895.332 229.551 886.719 233.75Z" fill="#3A3A3A"/>
<path d="M862.5 368C880.449 368 895 347.853 895 323C895 298.147 880.449 278 862.5 278C844.551 278 830 298.147 830 323C830 347.853 844.551 368 862.5 368Z" fill="#6D6D6D"/>
<path d="M897.745 252L892.524 240.134L884.92 238.651C886.542 199.581 879.179 187.942 879.179 187.942L877.468 187.715L870.016 186.721L856 166.689V161C875.694 164.228 886.58 177.106 892.46 192.2C902.852 218.689 897.745 252 897.745 252Z" fill="#3A3A3A"/>
<path opacity="0.1" d="M877.998 180.478V188L870.363 186.959L856 166C856 166 878.219 172.993 877.998 180.478Z" fill="black" stroke="#4C4981" stroke-miterlimit="10"/>
<path opacity="0.1" d="M897.637 252L892 240.081V192C903.151 218.538 897.637 252 897.637 252Z" fill="black" stroke="#4C4981" stroke-miterlimit="10"/>
<path d="M801.733 341.698C810.471 334.764 810.095 311.382 800.893 289.474C791.691 267.566 777.148 255.428 768.41 262.362C759.671 269.297 760.047 292.678 769.249 314.587C778.451 336.495 792.995 348.633 801.733 341.698Z" fill="#3A3A3A"/>
<path d="M789.96 297.866C799.248 319.963 810.644 334.723 801.829 341.743C793.013 348.763 767.334 345.253 758.046 323.139C748.758 301.026 757.19 270.488 766.005 263.467C774.821 256.447 780.659 275.718 789.96 297.866Z" fill="#6D6D6D"/>
<path opacity="0.1" d="M855 123.883C855 183.524 827.198 241 786.57 241C767.058 241 748.345 229.622 734.548 209.368C720.751 189.114 713 161.643 713 133C713 104.357 720.751 76.8864 734.548 56.6324C748.345 36.3785 767.058 25 786.57 25C827.198 25.0593 855 64.2269 855 123.883Z" fill="black"/>
<path d="M801.071 260.3C863.251 211.622 863 219.409 863 152.933C863 86.4578 815.344 21 773.678 21C732.012 21 695.844 51.68 704.214 129.565C712.585 207.449 738.892 308.978 801.071 260.3Z" fill="#F2CDD3"/>
<path d="M862.5 152.933V153.704C862.5 169.934 862.5 181.656 861.57 190.858C860.627 200.191 858.73 206.89 854.928 213.027C851.118 219.178 845.374 224.803 836.662 231.949C831.523 236.165 825.373 240.894 818.001 246.562C812.871 250.507 807.149 254.907 800.763 259.906C785.296 272.015 772.169 274.703 761.045 270.888C749.883 267.06 740.582 256.635 732.906 242.159C717.558 213.216 708.896 168.444 704.712 129.511C700.534 90.6442 707.48 63.6469 720.581 46.3778C733.673 29.119 752.971 21.5 773.678 21.5C794.264 21.5 816.464 37.6977 833.553 62.3234C850.624 86.923 862.5 119.808 862.5 152.933Z" stroke="#161414" stroke-opacity="0.33"/>
<path d="M861.5 202C828.457 149.289 826.458 111.555 771.797 143.789C666.053 136.598 671.14 205.152 683.228 111.555C683.228 57.9671 730.391 24.5737 771.797 18.1049C996.5 -17 882.5 235.5 861.5 202Z" fill="#2E2D2D"/>
</svg>
