<svg width="921" height="693" viewBox="0 0 921 693" fill="none" xmlns="http://www.w3.org/2000/svg">
<g clip-path="url(#clip0)">
<path d="M558.5 350C581.972 350 601 325.6 601 295.5C601 265.401 581.972 241 558.5 241C535.028 241 516 265.401 516 295.5C516 325.6 535.028 350 558.5 350Z" fill="#767D9F"/>
<path d="M556.063 227.414C560.202 250.97 563.714 274.702 566.601 298.61C567.469 305.714 568.242 313.206 566.268 319.922C564.614 325.521 561.248 329.895 558.608 334.797C555.967 339.698 553.969 345.98 555.575 351.595C557.181 357.21 561.867 360.281 566.339 361.863C579.137 366.362 592.779 363.089 605.518 358.218C611.285 356.282 616.815 353.295 621.943 349.346C627.343 344.879 631.768 338.675 635.836 332.284C654.402 302.922 666.558 267.681 678 232.657C670.648 233.53 663.242 232.108 656.394 228.51C649.547 224.912 643.454 219.241 638.619 211.965C633.933 204.784 630.495 194.779 633.136 186C625.393 191.537 616.199 191.91 607.861 195.694C602.69 198.27 597.713 201.463 592.993 205.234C587.3 209.525 581.639 213.899 576.009 218.356C569.574 223.412 563.544 227.911 556.063 227.414Z" fill="#FCD1D8"/>
<path d="M642.343 267.342C635.092 285.941 625.658 303.82 612.19 314.894C598.721 325.969 580.589 328.972 567.097 318.022C560.451 312.673 555.42 304.539 549.617 297.688C543.815 290.837 536.564 284.971 528.768 285.863C520.176 286.848 513.448 295.686 507.693 304.148C498.959 317.006 490.522 330.411 484.339 345.631C472.473 374.881 469.66 409.075 470.183 442.236C470.705 475.397 474.348 508.386 474.431 541.547C474.549 582.341 469.304 622.807 464 662.991C512.772 655.077 561.603 672.377 610.481 678.931C641.761 683.17 673.279 683.076 704.725 682.966C710.255 682.966 716.141 682.779 720.745 678.743C723.559 676.037 725.835 672.473 727.378 668.357C731.722 657.798 733.466 645.754 734.676 633.85C737.75 603.786 737.845 573.347 737.928 543.002C738.141 469.484 738.343 395.701 731.259 322.762C729.514 304.821 727.284 286.785 722.062 270.001C716.841 253.218 708.321 237.779 696.407 228.785C688.753 222.997 671.012 212.924 661.994 218.758C651.871 225.265 647.196 254.891 642.343 267.342Z" fill="#FFE57F"/>
<path d="M646.379 474.409C644.534 428.946 637.026 380.426 653.007 340.074C656.933 330.166 642.845 317.797 647.2 308.203C652.514 296.505 656.545 283.875 659.17 270.688C660.075 266.157 660.8 261.36 659.944 256.814C658.361 248.521 652.138 243.583 646.855 238.535C641.024 232.954 638.026 215.944 636.146 206.742C634.265 197.54 651.103 208.623 657.873 205.347C667.274 200.816 679.22 203.669 688.597 208.263C693.832 210.802 699.52 211.022 705.101 211.21C715.941 211.586 726.817 211.947 737.573 210.191C742.404 209.391 747.247 208.184 752.102 208.545C764.489 209.47 775.258 220.632 782.588 233.832C789.918 247.032 794.582 262.411 800.591 276.708C805.601 288.622 811.574 299.878 815.846 312.279C819.63 323.253 822.021 335.042 824.389 346.768L830.493 376.852C831.561 381.156 832.068 385.666 831.993 390.193C831.683 395.006 830.065 399.489 828.423 403.769C822.214 419.632 814.768 434.6 806.207 448.433C793.368 469.173 777.78 487.876 770.153 512.708C767.178 522.381 765.524 532.665 764.013 542.917C757.92 583.924 753.59 625.35 751.043 667C737.139 658.523 722.565 652.104 707.588 647.858C700.122 645.754 692.574 644.184 684.979 643.155C678.328 642.246 669.749 643.971 663.418 641.588C652.828 637.621 651.662 614.028 650.056 601.674C647.485 582 646.974 561.98 646.878 542.102C646.759 519.496 647.295 496.937 646.379 474.409Z" fill="#37474F"/>
<path d="M414.781 389.229C419.744 426.968 425.214 464.818 436 500.278C435.729 500.624 435.458 500.938 435.187 501.253C434.232 502.338 433.242 503.36 432.204 504.398C429.788 506.662 427.135 508.58 425.131 511.537C424.373 512.668 423.774 513.973 423.363 515.389C422.993 516.495 422.801 517.693 422.801 518.904C422.801 520.115 422.993 521.312 423.363 522.418C417.74 525.736 411.21 524.714 404.903 524.4C399.469 524.132 394.199 524.4 389.838 528.378C383.779 533.945 381.952 544.638 380.973 554.356C380.612 557.899 380.301 561.447 380.042 565.001C379.79 568.304 379.586 571.616 379.429 574.939C378.895 585.933 378.82 596.957 379.205 607.962C379.268 609.974 379.35 611.987 379.453 614C360.191 613.387 342.638 599.989 326.029 586.969C322.233 583.997 318.319 580.868 315.856 575.962C313.586 571.143 312.624 565.431 313.133 559.781C313.133 558.979 313.239 558.208 313.321 557.39C313.849 552.724 314.754 548.148 316.021 543.741C321.217 524.972 328.877 507.587 338.642 492.4C342.862 485.827 347.613 479.395 349.581 471.14C350.442 467.539 350.76 463.717 351.633 460.132C355.546 444.596 369.668 437.252 374.502 422.172C375.68 418.571 376.223 414.624 377.684 411.165C379 408.29 380.698 405.759 382.694 403.695C383.555 402.736 384.451 401.809 385.335 400.881C393.618 392.222 401.598 383.075 409.276 373.441C410.707 371.648 412.121 369.835 413.52 368C413.333 375.117 413.757 382.24 414.781 389.229Z" fill="#324148"/>
<path d="M533.344 280.063C531.642 282.439 529.797 284.674 527.988 286.894L527.504 287.472L525.588 289.817C522.112 293.784 519.104 298.416 516.662 303.558L516.461 303.996C510.432 318.268 512.666 335.838 514.345 352.049C516.427 372.25 517.364 392.628 517.147 413.014C516.84 441.152 514.333 469.102 514.286 497.208C514.286 503.586 514.392 509.948 514.605 516.326C514.948 526.69 515.539 537.039 516.248 547.387C517.017 558.736 517.939 570.069 518.802 581.403C519.488 590.172 520.138 598.926 520.682 607.68C520.954 612.213 521.214 616.731 521.427 621.264C521.675 626.579 521.876 631.91 521.994 637.225C522.077 640.601 522.124 643.962 522.124 647.339C522.124 649.262 522.124 651.169 522.124 653.076C522.124 656.734 522.05 660.381 521.9 664.018C521.742 668.697 521.502 673.387 521.179 678.087C520.812 683.199 520.162 688.779 517.443 692.375C517.277 692.594 517.1 692.797 516.922 693L513.092 692.375C486.685 688.195 460.027 687.566 433.524 690.499C434.104 685.215 434.636 679.947 435.156 674.648C435.392 672.147 435.629 669.63 435.853 667.113C436.114 664.237 436.362 661.361 436.598 658.484C436.87 655.358 437.118 652.232 437.355 649.105C437.97 641.049 438.51 632.988 438.975 624.922C439.66 613.157 440.181 601.37 440.535 589.562C440.709 583.925 440.843 578.281 440.937 572.633C441.071 565.63 441.134 558.621 441.126 551.608C441.126 544.792 441.083 537.966 440.996 531.13C440.996 528.879 440.925 526.628 440.784 524.392C440.682 522.38 440.472 520.379 440.157 518.405C439.279 513.854 438.092 509.418 436.61 505.149C436.35 504.336 436.102 503.586 435.853 502.726C435.712 502.304 435.582 501.867 435.451 501.444C442.261 493.425 447.109 482.686 451.767 472.119C459.322 455.095 467.054 437.322 468.319 417.657C469.584 397.991 462.195 375.903 447.984 369.901C444.118 368.337 440.027 367.9 436.043 366.977C432.283 366.102 424.444 364.117 420.094 360.552C417.729 363.762 415.365 366.915 413 370.01C413.143 365.287 414.017 360.654 415.566 356.394L417.244 356.504C417.108 356.003 417.043 355.473 417.055 354.941C417.055 353.268 417.93 351.377 419.798 349.282C425.367 343.029 434.127 341.638 437.639 333.181C439.105 329.663 439.353 325.474 440.535 321.785C443.928 311.265 453.67 307.388 459.535 298.978C465.399 290.568 466.865 278.656 471.606 269.277C475.147 262.427 480.059 257.015 485.793 253.645C486.266 253.348 486.751 253.051 487.235 252.785C497.048 247.235 508.706 245.969 518.873 246.001C522.822 246.001 533.061 246.157 538.073 248.799C538.886 249.183 539.631 249.784 540.261 250.565C545.604 258.256 537.293 274.498 533.344 280.063Z" fill="#37474F"/>
<path d="M416.412 354.025C425.66 350.403 435.369 349.209 444.975 350.511C454.581 351.813 463.892 355.585 472.368 361.609C480.988 367.838 488.721 376.529 493.462 387.741C500.585 404.561 500.274 424.838 499.771 444.04C499.52 453.649 499.197 463.6 495.94 472.228C492.169 482.211 485.058 489.063 477.803 494.669C473.258 498.441 468.279 501.244 463.054 502.97C455.009 505.244 446.652 503.313 438.548 501.413C429.736 499.295 420.279 496.741 414.161 488.206C410.57 483.254 408.606 476.822 406.667 470.53C403.881 461.446 401.088 452.372 398.286 443.308C393.438 427.563 391.798 414.466 398.203 399.126C401.112 392.133 404.667 385.592 407.541 378.553C408.977 374.971 414.125 354.944 416.412 354.025Z" fill="#37474F"/>
<path d="M882 619.083V670.362C859.634 684.976 835.643 692.439 811.424 692.314H517.376C517.223 692.554 517.059 692.777 516.896 693L513.363 692.314L43.241 693C19.7068 586.463 -7 683 15 586.463H89L132 570.548L124.152 518L270.647 537.517L308.558 542.662L328.249 545.286L369.005 550.722L389.972 553.518L420.501 557.6L424.797 558.166L446.799 561.098L476.652 564.957L518.63 570.548L588.606 579.895L637.834 586.463L718.671 597.251L734.044 599.292L735.701 599.515L737.14 599.703L757.442 602.413L779.728 605.397L782.312 605.74L882 619.083Z" fill="#2E2D2D"/>
<path d="M593 622.881L250.287 546L237 634.316L394.098 659.039L442.469 667L575.529 632.555L593 622.881Z" fill="#456890"/>
<path d="M415 662.984L586.949 621.137C587.809 620.924 588.695 620.96 589.544 621.242C590.392 621.525 591.181 622.047 591.855 622.771C592.529 623.495 593.071 624.404 593.442 625.431C593.813 626.459 594.003 627.58 594 628.714C594.004 630.512 593.52 632.256 592.633 633.64C591.746 635.025 590.511 635.963 589.145 636.29L421.22 677L415 662.984Z" fill="#456890"/>
<path d="M498.644 517.105C503.95 516.517 509.327 515.523 514.104 512.724C519.986 509.239 524.563 503.234 530.011 498.811C541.988 489.013 558.012 487.697 571.743 493.324C585.473 498.951 596.933 511.002 604.957 525.391C610.286 534.979 614.287 547.212 610.522 557.794C609.23 561.029 607.602 564.057 605.674 566.808L595.862 582.065C593.998 585.272 559.232 556.748 556.679 559.194C553.009 562.371 580.967 595.068 576.472 595.852C564.531 597.923 552.377 596.748 540.341 597.699C519.669 599.337 499.479 607.259 478.76 606.993C466.854 606.839 455.1 603.984 443.464 601.129L391.966 588.531C383.001 586.348 372.871 583.157 368.647 573.485C366.753 569.132 366.4 564.093 366.176 559.194C365.565 545.701 366.176 530.696 374.036 520.968C381.425 511.842 393.108 508.959 401.932 502.212C412.732 493.94 416.297 496.613 427.686 502.828C449.905 514.799 474.352 519.718 498.644 517.105Z" fill="#F2CDD3"/>
<path d="M730.556 497.998C715.97 505.42 701.301 512.873 686.026 517.295C660.418 524.717 633.622 523.545 608.216 532.03C594.794 536.53 581.455 543.78 567.665 542.311C561.501 541.655 555.55 539.186 549.552 537.311C515.855 526.373 477.549 529.92 450.183 558.046C440.823 567.656 433.162 579.64 426.214 592.422C424.727 595.182 423.722 598.341 423.271 601.672C422.82 605.003 422.933 608.424 423.604 611.69C424.275 614.957 425.486 617.988 427.15 620.567C428.815 623.146 430.892 625.21 433.233 626.61C443.876 633.048 455.276 637.049 466.942 638.438C482.538 640.251 498.204 637.345 513.717 634.438C536.736 630.141 559.766 625.829 582.726 621.001C590.969 619.266 599.212 617.469 607.503 616.094C667.165 606.172 727.907 618.235 787.723 609.953C793.769 609.11 799.922 608.016 805.421 604.625C819.342 596.031 826.231 573.374 823.356 553.468C820.482 533.561 809.388 517.014 796.038 506.857C784.849 498.31 772.781 494.857 760.321 491.232C748.753 487.685 741.697 492.372 730.556 497.998Z" fill="#F2CDD3"/>
<path opacity="0.1" d="M827.519 388.056C834.138 399.472 835.548 414.787 834.831 429.079C834.114 443.372 831.534 457.508 831.151 471.864C830.626 491.55 834.234 511.173 833.625 530.796C833.194 544.523 830.721 557.982 827.794 571.159C824.341 586.71 819.347 603.424 808.438 610.893C793.957 620.814 763.585 615.232 748.351 623C749.737 611.632 763.023 595.169 764.409 583.801C765.365 575.939 766.333 567.857 765.305 559.979C763.991 549.932 759.51 541.017 754.193 533.595C745.734 521.786 734.694 512.903 722.567 510.009C710.439 507.116 680.748 509.491 671.046 519.569C669.852 509.16 692.075 499.129 699.889 496.88C703.784 495.732 708.253 496.377 711.371 493.122C717.345 486.958 713.008 474.678 713.295 464.819C713.522 456.958 717.011 449.756 717.716 441.894C718.911 429.315 712.674 416.5 715.123 404.157C716.031 399.597 718.05 395.588 719.448 391.248C723.702 377.962 721.838 362.804 719.568 348.684C718.158 339.816 716.784 329.816 720.536 322.252C724.012 315.193 733.882 340.335 740.202 339.171C761.076 335.319 779.966 314.957 796.824 331.624C805.415 340.115 806.538 348.92 809.967 361.043C813.301 372.584 821.939 378.496 827.519 388.056Z" fill="black"/>
<path d="M830.565 387.779C837.144 399.208 838.545 414.541 837.832 428.851C837.12 443.16 834.555 457.313 834.175 471.685C833.652 491.395 837.239 511.041 836.633 530.687C836.206 544.43 833.747 557.906 830.838 571.098C827.406 586.667 822.442 603.401 811.6 610.878C797.207 620.812 767.02 615.223 751.879 623C753.257 611.618 766.462 595.136 767.839 583.755C768.789 575.883 769.751 567.792 768.73 559.905C767.424 549.846 762.971 540.92 757.686 533.489C749.278 521.667 738.306 512.773 726.252 509.876C714.199 506.979 684.689 509.357 675.046 519.447C673.859 509.026 695.947 498.982 703.713 496.731C707.584 495.582 712.026 496.227 715.125 492.969C721.063 486.798 716.752 474.503 717.037 464.633C717.263 456.762 720.73 449.552 721.431 441.68C722.618 429.087 716.42 416.257 718.854 403.899C719.756 399.334 721.763 395.319 723.153 390.975C727.38 377.672 725.528 362.497 723.272 348.36C721.87 339.482 720.505 329.47 724.233 321.898C727.689 314.829 734.446 312.153 740.728 310.972C761.762 307.201 783.073 314.49 800.105 331.28C808.643 339.781 809.759 348.596 813.167 360.734C816.433 372.289 825.019 378.208 830.565 387.779Z" fill="#324148"/>
<path d="M50.5128 395.131L114.077 640.048C114.856 643.049 116.495 645.731 118.774 647.736C121.052 649.742 123.863 650.976 126.831 651.274L412.932 679.929C415.264 680.164 417.616 679.812 419.79 678.904C421.965 677.996 423.899 676.558 425.431 674.71C426.963 672.863 428.048 670.659 428.595 668.285C429.142 665.91 429.135 663.433 428.575 661.062L358.967 365.635C358.139 362.123 356.143 359.031 353.335 356.909C350.526 354.787 347.087 353.771 343.628 354.043L63.5248 375.885C61.3742 376.059 59.287 376.726 57.412 377.838C55.537 378.95 53.9204 380.48 52.6776 382.318C51.4349 384.156 50.5965 386.257 50.2223 388.472C49.8481 390.687 49.9473 392.961 50.5128 395.131Z" fill="#456890"/>
<path d="M620.5 375C637.897 375 652 355.972 652 332.5C652 309.028 637.897 290 620.5 290C603.103 290 589 309.028 589 332.5C589 355.972 603.103 375 620.5 375Z" fill="#3A3A3A"/>
<path d="M646.928 254.671C646.928 254.671 653.34 280.974 634.42 292.034L632 297.869L643.852 314C643.852 314 658.463 277.23 656.88 264.172C656.88 264.172 654.618 250.912 646.928 254.671Z" fill="#3A3A3A"/>
<path d="M624.5 375C641.345 375 655 356.868 655 334.5C655 312.132 641.345 294 624.5 294C607.655 294 594 312.132 594 334.5C594 356.868 607.655 375 624.5 375Z" fill="#6D6D6D"/>
<path d="M656.833 270L651.976 259.438L644.902 258.118C646.411 223.341 639.562 212.982 639.562 212.982L637.97 212.78L631.039 211.894L618 194.063V189C636.32 191.873 646.447 203.336 651.917 216.771C661.584 240.349 656.833 270 656.833 270Z" fill="#3A3A3A"/>
<path opacity="0.1" d="M638.998 206.162V213L631.71 212.054L618 193C618 193 639.209 199.357 638.998 206.162Z" fill="black" stroke="#4C4981" stroke-miterlimit="10"/>
<path opacity="0.1" d="M656.832 270L652 259.471V217C661.558 240.442 656.832 270 656.832 270Z" fill="black" stroke="#4C4981" stroke-miterlimit="10"/>
<path d="M567.433 351.52C575.619 345.281 575.267 324.244 566.647 304.532C558.027 284.821 544.403 273.9 536.217 280.139C528.031 286.378 528.383 307.415 537.004 327.127C545.624 346.838 559.248 357.759 567.433 351.52Z" fill="#3A3A3A"/>
<path d="M556.845 311.409C565.586 331.376 576.312 344.713 568.015 351.057C559.719 357.4 535.55 354.229 526.808 334.246C518.066 314.264 526.002 286.669 534.299 280.326C542.596 273.982 548.091 291.395 556.845 311.409Z" fill="#6D6D6D"/>
<path opacity="0.1" d="M618 174.353C618 227.644 591.764 279 553.425 279C535.013 279 517.354 268.833 504.334 250.736C491.314 232.639 484 208.093 484 182.5C484 156.907 491.314 132.361 504.334 114.264C517.354 96.1669 535.013 86 553.425 86C591.764 86.053 618 121.05 618 174.353Z" fill="black"/>
<path d="M565 281C623.101 237.365 625 240.961 625 181.373C625 121.784 613.475 90 574.542 90C535.61 90 468.809 90.6095 476.63 160.425C484.452 230.241 506.899 324.635 565 281Z" fill="#F2CDD3"/>
<path d="M624.5 181.373C624.5 211.214 624.009 225.043 616.368 236.898C612.543 242.831 606.91 248.294 598.572 255.015C592.821 259.652 585.806 264.869 577.237 271.242C573.382 274.11 569.211 277.212 564.7 280.6C550.255 291.449 538.135 293.642 527.953 289.917C517.732 286.177 509.311 276.423 502.405 263.027C488.598 236.244 481.037 195.272 477.127 160.369C475.181 142.994 477.882 129.98 483.586 120.22C489.29 110.46 498.028 103.9 508.252 99.4908C528.729 90.6595 555.055 90.5 574.542 90.5C584.207 90.5 592.134 92.4721 598.595 96.3267C605.054 100.18 610.085 105.937 613.924 113.565C621.615 128.847 624.5 151.587 624.5 181.373Z" stroke="#161414" stroke-opacity="0.33"/>
<path d="M624.348 193.389C611.59 138.849 471.497 180.758 418.961 138.387C342.11 76.4059 375.095 92.0194 473.572 84.8006C488.077 36.9117 537.816 29.6062 573.731 32.1743C695.599 40.8884 632.457 228.052 624.348 193.389Z" fill="#2E2D2D"/>
</g>
<defs>
<clipPath id="clip0">
<rect width="921" height="693" fill="white"/>
</clipPath>
</defs>
</svg>
